<?xml version="1.0" encoding="UTF-8" standalone="no" ?>
<!DOCTYPE svg PUBLIC "-//W3C//DTD SVG 1.1//EN" "http://www.w3.org/Graphics/SVG/1.1/DTD/svg11.dtd">
<svg xmlns="http://www.w3.org/2000/svg" xmlns:xlink="http://www.w3.org/1999/xlink" version="1.1" width="1280" height="1024" viewBox="0 0 1280 1024" xml:space="preserve">
<desc>Created with Fabric.js 5.3.0</desc>
<defs>
</defs>
<g transform="matrix(1 0 0 1 640 512)" id="background-logo"  >
<rect style="stroke: none; stroke-width: 0; stroke-dasharray: none; stroke-linecap: butt; stroke-dashoffset: 0; stroke-linejoin: miter; stroke-miterlimit: 4; fill: rgb(255,255,255); fill-opacity: 0; fill-rule: nonzero; opacity: 1;"  paint-order="stroke"  x="-640" y="-512" rx="0" ry="0" width="1280" height="1024" />
</g>
<g transform="matrix(1.825184895775405 0 0 1.8251848957754049 261.004375 512)" id="logo-logo"  >
<g style=""  paint-order="stroke"   >
		<g transform="matrix(0.8344897203358166 0 0 -0.8344897203358166 -39.23562042588918 44.42214093572042)"  >
<path style="stroke: none; stroke-width: 1; stroke-dasharray: none; stroke-linecap: butt; stroke-dashoffset: 0; stroke-linejoin: miter; stroke-miterlimit: 4; fill: rgb(128,197,234); fill-rule: nonzero; opacity: 1;"  paint-order="stroke"  transform=" translate(-50.8675, 41.747)" d="M 0 0 L 0 -26.369 L 101.735 -83.494 L 101.735 -57.123999999999995 z" stroke-linecap="round" />
</g>
		<g transform="matrix(0.8344897203358166 0 0 -0.8344897203358166 0 -11.385110152485623)"  >
<path style="stroke: none; stroke-width: 1; stroke-dasharray: none; stroke-linecap: butt; stroke-dashoffset: 0; stroke-linejoin: miter; stroke-miterlimit: 4; fill: rgb(128,197,234); fill-rule: nonzero; opacity: 1;"  paint-order="stroke"  transform=" translate(97.885, -6.788500000000013)" d="M 0 0 L 0 88.125 L -75.507 88.125 L -33.934000000000005 65.132 L -22.993000000000002 65.132 L -22.993000000000002 38.845 L -112.78999999999999 88.125 L -195.76999999999998 88.125 L -195.76999999999998 55.576 L -42.171 -27.849 L -55.133 -45.835 L -195.77 29.485 L -195.77 3.403 L -50.22 -74.54799999999999 L -8.68 -19.873999999999988 L -165.19 65.132 L -118.684 65.132 z" stroke-linecap="round" />
</g>
</g>
</g>
<g transform="matrix(1.9211538461538462 0 0 1.9211538461538462 820.0173985576921 495.23383335706114)" id="text-logo"  >
<g style=""  paint-order="stroke"   >
		<g transform="matrix(1 0 0 1 5.684342e-14 2.842171e-14)" id="text-logo-path-0"  >
<path style="stroke: none; stroke-width: 0; stroke-dasharray: none; stroke-linecap: butt; stroke-dashoffset: 0; stroke-linejoin: miter; stroke-miterlimit: 4; fill: rgb(128,197,234); fill-rule: nonzero; opacity: 1;"  paint-order="stroke"  transform=" translate(-182.775, 10.15)" d="M 2.06 0 L 6.7 0 L 6.7 -4.44 L 10.64 -4.44 C 15.11 -4.44 18.53 -7.71 18.53 -12.41 C 18.53 -16.88 15.28 -20.3 10.64 -20.3 L 2.06 -20.3 Z M 6.7 -8.79 L 6.7 -15.95 L 10.01 -15.95 C 12.06 -15.95 13.6 -14.5 13.6 -12.38 C 13.6 -10.29 12.18 -8.79 10.01 -8.79 Z M 34.05 -20.3 L 34.05 0 L 38.69 0 L 38.69 -20.3 Z M 54.67 -20.3 L 54.67 0 L 59.31 0 L 59.31 -12.53 L 69.46 0 L 74.09 0 L 74.09 -20.3 L 69.46 -20.3 L 69.46 -7.77 L 59.31 -20.3 Z M 106.89 -20.3 L 88.94 -20.3 L 88.94 -15.95 L 95.58 -15.95 L 95.58 0 L 100.22 0 L 100.22 -15.95 L 106.89 -15.95 Z M 140.16 -9.13 L 140.16 -20.3 L 135.52 -20.3 L 135.52 -9.13 C 135.52 -6.26 133.57 -4.18 130.62 -4.18 C 127.75 -4.18 125.66 -6.15 125.66 -9.13 L 125.66 -20.3 L 121.02 -20.3 L 121.02 -9.13 C 121.02 -3.57 124.85 0.46 130.65 0.46 C 136.13 0.46 140.16 -3.36 140.16 -9.13 Z M 173.68 -20.3 L 173.68 0 L 182.61 0 C 188.47 0 192.76 -4.06 192.76 -10.15 C 192.76 -16.01 188.7 -20.3 182.61 -20.3 Z M 178.32 -4.35 L 178.32 -15.95 L 182.03 -15.95 C 185.4 -15.95 187.83 -13.66 187.83 -10.15 C 187.83 -6.79 185.54 -4.35 182.03 -4.35 Z M 207.96 -20.3 L 207.96 0 L 212.6 0 L 212.6 -20.3 Z M 247.86 -4.23 L 247.86 -11.31 L 237.6 -11.31 L 237.6 -7.83 L 243.22 -7.83 L 243.22 -5.95 C 241.89 -4.67 240.29 -4.12 238.5 -4.12 C 235.19 -4.12 232.75 -6.7 232.75 -10.12 C 232.75 -13.49 235.02 -16.18 238.5 -16.18 C 240.55 -16.18 242.44 -15.14 243.51 -13.54 L 247.6 -15.95 C 245.83 -18.91 242.64 -20.76 238.5 -20.76 C 232.38 -20.76 227.91 -16.53 227.91 -10.12 C 227.91 -4 232.12 0.46 238.5 0.46 C 242.47 0.46 245.83 -1.25 247.86 -4.23 Z M 263.32 -20.3 L 263.32 0 L 267.96 0 L 267.96 -20.3 Z M 301.02 -20.3 L 283.07 -20.3 L 283.07 -15.95 L 289.71 -15.95 L 289.71 0 L 294.35 0 L 294.35 -15.95 L 301.02 -15.95 Z M 310.91 0 L 315.98 0 L 317.26 -2.99 L 327.03 -2.99 L 328.31 0 L 333.38 0 L 324.68 -20.3 L 319.61 -20.3 Z M 319 -7.05 L 322.16 -14.38 L 325.29 -7.05 Z M 348.46 -20.3 L 348.46 0 L 363.49 0 L 363.49 -4.35 L 353.1 -4.35 L 353.1 -20.3 Z" stroke-linecap="round" />
</g>
</g>
</g>
<g transform="matrix(1.9211538461538462 0 0 1.9211538461538462 606.4338974303104 540.812192055129)" id="tagline-3f41a7dc-3fe8-4f3a-a30c-95b4516446a6-logo"  >
<g style=""  paint-order="stroke"   >
		<g transform="matrix(1 0 0 1 0 0)" id="tagline-3f41a7dc-3fe8-4f3a-a30c-95b4516446a6-logo-path-0"  >
<path style="stroke: none; stroke-width: 0; stroke-dasharray: none; stroke-linecap: butt; stroke-dashoffset: 0; stroke-linejoin: miter; stroke-miterlimit: 4; fill: rgb(128,197,234); fill-rule: nonzero; opacity: 1;"  paint-order="stroke"  transform=" translate(-70.2, 5.25)" d="M 3.34 0 L 5 0 L 5 -9.15 L 7.57 -9.15 L 7.72 -10.5 L 0.75 -10.5 L 0.6 -9.15 L 3.34 -9.15 Z M 17.32 0 L 23.58 0 L 23.73 -1.35 L 18.98 -1.35 L 18.98 -4.58 L 22.65 -4.58 L 22.8 -5.92 L 18.98 -5.92 L 18.98 -9.15 L 23.43 -9.15 L 23.58 -10.5 L 16.88 -10.5 L 16.73 -9.15 L 17.32 -9.15 Z M 33.33 0 L 34.98 0 L 34.98 -4.47 L 39.33 0 L 41.5 0 L 36.45 -5.19 L 40.9 -10.5 L 38.8 -10.5 L 34.98 -5.94 L 34.98 -10.5 L 32.88 -10.5 L 32.73 -9.15 L 33.33 -9.15 Z M 50.5 0 L 52.15 0 L 52.15 -7.84 L 56.13 0 L 58.23 0 L 58.23 -10.5 L 56.58 -10.5 L 56.58 -2.65 L 52.6 -10.5 L 50.05 -10.5 L 49.9 -9.15 L 50.5 -9.15 Z M 72.3 0.09 C 75.27 0.09 77.37 -2.05 77.37 -5.26 C 77.37 -8.45 75.27 -10.59 72.3 -10.59 C 69.33 -10.59 67.23 -8.45 67.23 -5.26 C 67.23 -2.05 69.33 0.09 72.3 0.09 Z M 72.3 -1.41 C 70.45 -1.41 68.88 -2.7 68.88 -5.26 C 68.88 -7.8 70.45 -9.09 72.3 -9.09 C 74.14 -9.09 75.72 -7.8 75.72 -5.26 C 75.72 -2.7 74.14 -1.41 72.3 -1.41 Z M 86.97 0 L 92.92 0 L 93.07 -1.35 L 88.62 -1.35 L 88.62 -10.5 L 86.52 -10.5 L 86.37 -9.15 L 86.97 -9.15 Z M 106.39 0.09 C 109.36 0.09 111.46 -2.05 111.46 -5.26 C 111.46 -8.45 109.36 -10.59 106.39 -10.59 C 103.42 -10.59 101.32 -8.45 101.32 -5.26 C 101.32 -2.05 103.42 0.09 106.39 0.09 Z M 106.39 -1.41 C 104.55 -1.41 102.97 -2.7 102.97 -5.26 C 102.97 -7.8 104.55 -9.09 106.39 -9.09 C 108.24 -9.09 109.81 -7.8 109.81 -5.26 C 109.81 -2.7 108.24 -1.41 106.39 -1.41 Z M 124.87 -4.58 L 126.9 -4.58 L 126.9 -2.07 C 126.28 -1.62 125.53 -1.41 124.68 -1.41 C 122.98 -1.41 121.66 -2.7 121.66 -5.26 C 121.66 -7.8 122.98 -9.09 124.68 -9.09 C 125.62 -9.09 126.43 -8.8 127.05 -8.22 L 127.87 -9.51 C 127.05 -10.2 125.97 -10.59 124.68 -10.59 C 121.95 -10.59 120.01 -8.45 120.01 -5.26 C 120.01 -2.05 121.95 0.09 124.68 0.09 C 125.5 0.09 126.25 -0.07 126.9 -0.38 L 126.9 0 L 128.55 0 L 128.55 -5.92 L 124.87 -5.92 Z M 138.15 0 L 139.8 0 L 139.8 -10.5 L 137.7 -10.5 L 137.55 -9.15 L 138.15 -9.15 Z" stroke-linecap="round" />
</g>
</g>
</g>
</svg>